<svg width="180" height="23" viewBox="0 0 180 23" fill="none" xmlns="http://www.w3.org/2000/svg">
<path d="M17.3877 15.3955C17.2216 17.6904 16.372 19.4971 14.8388 20.8154C13.3154 22.1338 11.3037 22.793 8.80371 22.793C6.06933 22.793 3.91601 21.875 2.34375 20.0391C0.781254 18.1934 0 15.6641 0 12.4512V11.1475C0 9.09668 0.361328 7.29004 1.08398 5.72754C1.80664 4.16504 2.83691 2.96875 4.1748 2.13867C5.52246 1.29883 7.08496 0.87891 8.8623 0.87891C11.3232 0.87891 13.3056 1.53809 14.8095 2.85645C16.3134 4.1748 17.1826 6.02539 17.417 8.4082H13.0224C12.915 7.03125 12.5293 6.03516 11.8652 5.41992C11.2109 4.79492 10.2099 4.48242 8.8623 4.48242C7.39746 4.48242 6.29882 5.00977 5.5664 6.06445C4.84375 7.10937 4.47265 8.73535 4.45312 10.9424V12.5537C4.45312 14.8584 4.7998 16.543 5.49316 17.6074C6.19628 18.6719 7.2998 19.2041 8.80371 19.2041C10.1611 19.2041 11.1718 18.8965 11.8359 18.2812C12.5097 17.6562 12.8955 16.6943 12.9931 15.3955H17.3877ZM24.4629 22.5H20.2148V0H24.4629V22.5ZM37.1484 22.5C36.9531 22.1191 36.8115 21.6455 36.7236 21.0791C35.6982 22.2217 34.3652 22.793 32.7246 22.793C31.1718 22.793 29.8828 22.3438 28.8574 21.4453C27.8418 20.5469 27.334 19.4141 27.334 18.0469C27.334 16.3672 27.9541 15.0781 29.1943 14.1797C30.4443 13.2812 32.2461 12.8271 34.5996 12.8174H36.5478V11.9092C36.5478 11.1768 36.3574 10.5908 35.9765 10.1514C35.6054 9.7119 35.0146 9.49219 34.2041 9.49219C33.4912 9.49219 32.9297 9.6631 32.5195 10.0049C32.1191 10.3467 31.9189 10.8154 31.9189 11.4111H27.6855C27.6855 10.4932 27.9687 9.6436 28.5351 8.8623C29.1015 8.08105 29.9023 7.4707 30.9375 7.03125C31.9726 6.58203 33.1347 6.35742 34.4238 6.35742C36.3769 6.35742 37.9248 6.85059 39.0673 7.83691C40.2197 8.81348 40.7959 10.1904 40.7959 11.9678V18.8379C40.8056 20.3418 41.0156 21.4795 41.4257 22.251V22.5H37.1484ZM33.6474 19.5557C34.2724 19.5557 34.8486 19.4189 35.3759 19.1455C35.9033 18.8623 36.2939 18.4863 36.5478 18.0176V15.293H34.9658C32.8466 15.293 31.7187 16.0254 31.582 17.4902L31.5673 17.7393C31.5673 18.2666 31.7529 18.7012 32.124 19.043C32.4951 19.3848 33.0029 19.5557 33.6474 19.5557ZM52.6318 18.1201C52.6318 17.6025 52.373 17.1973 51.8554 16.9043C51.3476 16.6016 50.5273 16.333 49.3945 16.0986C45.625 15.3076 43.7402 13.7061 43.7402 11.2939C43.7402 9.8877 44.3213 8.71582 45.4834 7.77832C46.6552 6.83105 48.1836 6.35742 50.0683 6.35742C52.08 6.35742 53.6865 6.83105 54.8877 7.77832C56.0986 8.72559 56.7041 9.9561 56.7041 11.4697H52.4707C52.4707 10.8643 52.2754 10.3662 51.8847 9.9756C51.4941 9.5752 50.8838 9.375 50.0537 9.375C49.3408 9.375 48.789 9.5361 48.3984 9.8584C48.0078 10.1807 47.8125 10.5908 47.8125 11.0889C47.8125 11.5576 48.0322 11.9385 48.4716 12.2314C48.9209 12.5146 49.6728 12.7637 50.7275 12.9785C51.7822 13.1836 52.6709 13.418 53.3935 13.6816C55.6298 14.502 56.748 15.9229 56.748 17.9443C56.748 19.3896 56.1279 20.5615 54.8877 21.46C53.6474 22.3486 52.0459 22.793 50.083 22.793C48.7548 22.793 47.5732 22.5586 46.5381 22.0898C45.5127 21.6113 44.707 20.9619 44.1211 20.1416C43.5351 19.3115 43.2422 18.418 43.2422 17.4609H47.2558C47.2949 18.2129 47.5732 18.7891 48.0908 19.1895C48.6084 19.5898 49.3017 19.79 50.1709 19.79C50.9814 19.79 51.5918 19.6387 52.0019 19.3359C52.4218 19.0234 52.6318 18.6182 52.6318 18.1201ZM68.0713 18.1201C68.0713 17.6025 67.8125 17.1973 67.2949 16.9043C66.7871 16.6016 65.9668 16.333 64.834 16.0986C61.0644 15.3076 59.1797 13.7061 59.1797 11.2939C59.1797 9.8877 59.7607 8.71582 60.9228 7.77832C62.0947 6.83105 63.623 6.35742 65.5078 6.35742C67.5195 6.35742 69.1259 6.83105 70.3271 7.77832C71.5381 8.72559 72.1435 9.9561 72.1435 11.4697H67.9101C67.9101 10.8643 67.7148 10.3662 67.3242 9.9756C66.9336 9.5752 66.3232 9.375 65.4931 9.375C64.7802 9.375 64.2285 9.5361 63.8379 9.8584C63.4472 10.1807 63.2519 10.5908 63.2519 11.0889C63.2519 11.5576 63.4716 11.9385 63.9111 12.2314C64.3603 12.5146 65.1123 12.7637 66.167 12.9785C67.2216 13.1836 68.1103 13.418 68.833 13.6816C71.0693 14.502 72.1875 15.9229 72.1875 17.9443C72.1875 19.3896 71.5673 20.5615 70.3271 21.46C69.0869 22.3486 67.4853 22.793 65.5224 22.793C64.1943 22.793 63.0127 22.5586 61.9775 22.0898C60.9521 21.6113 60.1464 20.9619 59.5605 20.1416C58.9746 19.3115 58.6816 18.418 58.6816 17.4609H62.6953C62.7343 18.2129 63.0127 18.7891 63.5302 19.1895C64.0478 19.5898 64.7412 19.79 65.6103 19.79C66.4209 19.79 67.0312 19.6387 67.4414 19.3359C67.8613 19.0234 68.0713 18.6182 68.0713 18.1201ZM83.833 10.6201C83.2568 10.542 82.749 10.5029 82.3095 10.5029C80.708 10.5029 79.6582 11.0449 79.1601 12.1289V22.5H74.9267V6.65039H78.9257L79.0429 8.54004C79.8925 7.08496 81.0693 6.35742 82.5732 6.35742C83.042 6.35742 83.4814 6.4209 83.8916 6.54785L83.833 10.6201ZM84.6972 14.4287C84.6972 12.8564 85 11.4551 85.6054 10.2246C86.2109 8.99414 87.08 8.04199 88.2129 7.36816C89.3554 6.69434 90.6787 6.35742 92.1826 6.35742C94.3213 6.35742 96.0644 7.01172 97.4121 8.32031C98.7695 9.6289 99.5263 11.4062 99.6826 13.6523L99.7119 14.7363C99.7119 17.168 99.0332 19.1211 97.6757 20.5957C96.3183 22.0605 94.497 22.793 92.2119 22.793C89.9267 22.793 88.1006 22.0605 86.7334 20.5957C85.3759 19.1309 84.6972 17.1387 84.6972 14.6191V14.4287ZM88.9306 14.7363C88.9306 16.2402 89.2138 17.3926 89.7802 18.1934C90.3466 18.9844 91.1572 19.3799 92.2119 19.3799C93.2373 19.3799 94.0381 18.9893 94.6142 18.208C95.1904 17.417 95.4785 16.1572 95.4785 14.4287C95.4785 12.9541 95.1904 11.8115 94.6142 11.001C94.0381 10.1904 93.2275 9.7852 92.1826 9.7852C91.1474 9.7852 90.3466 10.1904 89.7802 11.001C89.2138 11.8018 88.9306 13.0469 88.9306 14.7363ZM101.66 14.4287C101.66 12.8564 101.963 11.4551 102.568 10.2246C103.174 8.99414 104.043 8.04199 105.176 7.36816C106.318 6.69434 107.641 6.35742 109.145 6.35742C111.284 6.35742 113.027 7.01172 114.375 8.32031C115.732 9.6289 116.489 11.4062 116.645 13.6523L116.675 14.7363C116.675 17.168 115.996 19.1211 114.638 20.5957C113.281 22.0605 111.46 22.793 109.175 22.793C106.889 22.793 105.063 22.0605 103.696 20.5957C102.339 19.1309 101.66 17.1387 101.66 14.6191V14.4287ZM105.893 14.7363C105.893 16.2402 106.177 17.3926 106.743 18.1934C107.309 18.9844 108.12 19.3799 109.175 19.3799C110.2 19.3799 111.001 18.9893 111.577 18.208C112.153 17.417 112.441 16.1572 112.441 14.4287C112.441 12.9541 112.153 11.8115 111.577 11.001C111.001 10.1904 110.19 9.7852 109.145 9.7852C108.11 9.7852 107.309 10.1904 106.743 11.001C106.177 11.8018 105.893 13.0469 105.893 14.7363ZM123.252 6.65039L123.384 8.42285C124.507 7.0459 126.025 6.35742 127.939 6.35742C129.98 6.35742 131.382 7.16309 132.143 8.77441C133.257 7.16309 134.844 6.35742 136.904 6.35742C138.623 6.35742 139.902 6.86035 140.742 7.86621C141.582 8.8623 142.002 10.3662 142.002 12.3779V22.5H137.754V12.3926C137.754 11.4941 137.578 10.8398 137.226 10.4297C136.875 10.0098 136.255 9.7998 135.366 9.7998C134.096 9.7998 133.218 10.4053 132.729 11.6162L132.744 22.5H128.511V12.4072C128.511 11.4893 128.33 10.8252 127.969 10.415C127.607 10.0049 126.992 9.7998 126.123 9.7998C124.922 9.7998 124.052 10.2979 123.515 11.2939V22.5H119.282V6.65039H123.252ZM149.399 9.9609H151.655C152.729 9.9609 153.525 9.6924 154.043 9.15527C154.56 8.61816 154.819 7.90527 154.819 7.0166C154.819 6.15723 154.56 5.48828 154.043 5.00977C153.535 4.53125 152.832 4.29199 151.933 4.29199C151.123 4.29199 150.444 4.5166 149.897 4.96582C149.35 5.40527 149.077 5.98145 149.077 6.69434H144.844C144.844 5.58105 145.141 4.58496 145.737 3.70605C146.343 2.81738 147.182 2.12402 148.257 1.62598C149.341 1.12793 150.532 0.87891 151.831 0.87891C154.087 0.87891 155.854 1.4209 157.134 2.50488C158.413 3.5791 159.052 5.06348 159.052 6.95801C159.052 7.93457 158.755 8.83301 158.159 9.6533C157.563 10.4736 156.782 11.1035 155.815 11.543C157.016 11.9727 157.91 12.6172 158.496 13.4766C159.092 14.3359 159.389 15.3516 159.389 16.5234C159.389 18.418 158.696 19.9365 157.309 21.0791C155.932 22.2217 154.106 22.793 151.831 22.793C149.702 22.793 147.959 22.2314 146.601 21.1084C145.254 19.9854 144.58 18.501 144.58 16.6553H148.813C148.813 17.4561 149.111 18.1104 149.707 18.6182C150.312 19.126 151.054 19.3799 151.933 19.3799C152.939 19.3799 153.725 19.1162 154.292 18.5889C154.868 18.0518 155.156 17.3438 155.156 16.4648C155.156 14.3359 153.984 13.2715 151.64 13.2715H149.399V9.9609ZM162.773 22.5V1.17188H169.336C171.211 1.17188 172.886 1.59668 174.36 2.44629C175.844 3.28613 177.002 4.4873 177.832 6.0498C178.662 7.60254 179.077 9.37012 179.077 11.3525V12.334C179.077 14.3164 178.667 16.0791 177.846 17.6221C177.036 19.165 175.888 20.3613 174.404 21.2109C172.92 22.0605 171.245 22.4902 169.38 22.5H162.773ZM167.168 4.73145V18.9697H169.292C171.011 18.9697 172.324 18.4082 173.232 17.2852C174.14 16.1621 174.604 14.5557 174.624 12.4658V11.3379C174.624 9.16992 174.175 7.5293 173.276 6.41602C172.378 5.29297 171.064 4.73145 169.336 4.73145H167.168Z" fill="white"/>
</svg>
