<svg width="31" height="30" viewBox="0 0 31 30" fill="none" xmlns="http://www.w3.org/2000/svg">
<path d="M15.0427 0C6.75868 0 0.0429688 6.71591 0.0429688 14.9998C0.0429688 23.2836 6.75868 30 15.0427 30C23.3268 30 30.043 23.2836 30.043 14.9998C30.043 6.71591 23.3268 0 15.0427 0ZM22.4672 16.642C20.7692 18.5286 15.7622 22.604 15.5497 22.7764C15.4008 22.8975 15.2211 22.959 15.0427 22.9504C15.0373 22.9507 15.0315 22.9507 15.0258 22.9507C14.8533 22.9507 14.6798 22.8936 14.5356 22.7764C14.3232 22.6039 9.31672 18.5285 7.6192 16.6422C5.75796 14.5732 5.77016 11.5976 7.6475 9.72026C9.56363 7.80383 12.682 7.80383 14.5982 9.72026L15.043 10.1651L15.4881 9.71996C17.4043 7.80383 20.5223 7.80403 22.439 9.71996C24.316 11.5977 24.3282 14.5733 22.4672 16.642Z" fill="#F2F2F2"/>
</svg>
