<?xml version="1.0" encoding="utf-8"?>
<!-- Generator: Adobe Illustrator 19.2.1, SVG Export Plug-In . SVG Version: 6.00 Build 0)  -->
<svg version="1.1" id="Layer_1" xmlns="http://www.w3.org/2000/svg" xmlns:xlink="http://www.w3.org/1999/xlink" x="0px" y="0px"
	 viewBox="0 0 300 300" style="enable-background:new 0 0 300 300;" xml:space="preserve">
<style type="text/css">
	.st0{fill:#FBD900;}
	.st1{fill:#F1F0F1;}
	.st2{fill:#423F3D;}
</style>
<g>
	<line class="st0" x1="87.5" y1="87" x2="92.9" y2="92.4"/>
</g>
<g>
	<line class="st0" x1="209.3" y1="208.8" x2="216.8" y2="216.3"/>
</g>
<g>
	<line class="st0" x1="85.4" y1="216.3" x2="92.9" y2="208.8"/>
</g>
<g>
	<line class="st0" x1="211.6" y1="92.4" x2="217" y2="87"/>
</g>
<g>
	<line class="st0" x1="150.6" y1="239.8" x2="150.6" y2="228.9"/>
</g>
<g>
	<line class="st0" x1="150.3" y1="71.9" x2="150.3" y2="57"/>
</g>
<g>
	<line class="st0" x1="243.2" y1="152.8" x2="228" y2="152.8"/>
</g>
<g>
	<line class="st0" x1="73.2" y1="151.1" x2="58.8" y2="151.1"/>
</g>
<g>
	<g>
		<path class="st1" d="M156.8,133.4c0-12.7,11-22.8,24-21.4c9.9,1.1,17.9,9.1,18.9,19c0.4,3.7-0.2,7.3-1.5,10.5
			c-0.8,2.1-2.1,3.9-3.5,5.6l-33.3,39.4c-3.1,3.1-6,3.3-9.4,0l-33-39.3c-1.4-1.7-2.7-3.5-3.5-5.6c-1.3-3.2-1.9-6.8-1.5-10.5
			c1-9.9,9-18,18.9-19.1C145.8,110.6,156.8,120.7,156.8,133.4"/>
	</g>
	<g>
		<circle class="st1" cx="75.8" cy="71.4" r="14.6"/>
	</g>
	<g>
		<circle class="st1" cx="241" cy="64.8" r="8.9"/>
	</g>
	<g>
		<circle class="st1" cx="79" cy="237.5" r="13.1"/>
	</g>
	<g>
		<circle class="st1" cx="243.8" cy="235.5" r="12.7"/>
	</g>
	<g>
		<ellipse transform="matrix(0.7071 -0.7071 0.7071 0.7071 -143.4163 191.8494)" class="st1" cx="159.9" cy="269" rx="11" ry="11"/>
	</g>
	<g>
		<ellipse transform="matrix(0.7071 -0.7071 0.7071 0.7071 -94.9868 73.8736)" class="st1" cx="41.7" cy="151.6" rx="12" ry="12"/>
	</g>
	<g>
		
			<ellipse transform="matrix(0.7071 -0.7071 0.7071 0.7071 -23.5426 241.5971)" class="st1" cx="279.9" cy="149.2" rx="12.3" ry="12.3"/>
	</g>
	<g>
		
			<ellipse transform="matrix(0.7071 -0.7071 0.7071 0.7071 24.3618 122.3534)" class="st1" cx="159.9" cy="31.8" rx="11.9" ry="11.9"/>
	</g>
</g>
<g>
	<g>
		<path class="st2" d="M88.5,92.7c-1.2,0-2.4-0.5-3.3-1.4l-5.8-5.8c-1.8-1.8-1.8-4.8,0-6.6c1.8-1.8,4.8-1.8,6.6,0l5.8,5.8
			c1.8,1.8,1.8,4.8,0,6.6C90.9,92.2,89.7,92.7,88.5,92.7z"/>
	</g>
	<g>
		<path class="st2" d="M221.8,226c-1.2,0-2.4-0.5-3.3-1.4l-8.1-8.1c-1.8-1.8-1.8-4.8,0-6.6c1.8-1.8,4.8-1.8,6.6,0l8.1,8.1
			c1.8,1.8,1.8,4.8,0,6.6C224.2,225.5,223,226,221.8,226z"/>
	</g>
	<g>
		<path class="st2" d="M80.4,226c-1.2,0-2.4-0.5-3.3-1.4c-1.8-1.8-1.8-4.8,0-6.6l8.1-8.1c1.8-1.8,4.8-1.8,6.6,0
			c1.8,1.8,1.8,4.8,0,6.6l-8.1,8.1C82.8,225.5,81.6,226,80.4,226z"/>
	</g>
	<g>
		<path class="st2" d="M216.3,92.7c-1.2,0-2.4-0.5-3.3-1.4c-1.8-1.8-1.8-4.8,0-6.6l5.8-5.8c1.8-1.8,4.8-1.8,6.6,0
			c1.8,1.8,1.8,4.8,0,6.6l-5.8,5.8C218.6,92.2,217.4,92.7,216.3,92.7z"/>
	</g>
	<g>
		<path class="st2" d="M150.6,251.3c-2.6,0-4.7-2.1-4.7-4.7v-11.8c0-2.6,2.1-4.7,4.7-4.7c2.6,0,4.7,2.1,4.7,4.7v11.8
			C155.2,249.2,153.1,251.3,150.6,251.3z"/>
	</g>
	<g>
		<path class="st2" d="M150.3,70.6c-2.6,0-4.7-2.1-4.7-4.7V49.8c0-2.6,2.1-4.7,4.7-4.7s4.7,2.1,4.7,4.7v16.1
			C155,68.5,152.9,70.6,150.3,70.6z"/>
	</g>
	<g>
		<path class="st2" d="M250.3,157.6h-16.4c-2.6,0-4.7-2.1-4.7-4.7s2.1-4.7,4.7-4.7h16.4c2.6,0,4.7,2.1,4.7,4.7
			S252.9,157.6,250.3,157.6z"/>
	</g>
	<g>
		<path class="st2" d="M67.2,155.8H51.8c-2.6,0-4.7-2.1-4.7-4.7s2.1-4.7,4.7-4.7h15.5c2.6,0,4.7,2.1,4.7,4.7S69.8,155.8,67.2,155.8z
			"/>
	</g>
</g>
<g>
	<g>
		<path class="st2" d="M150.4,216c-4.1,0-8.2-1.9-11.9-5.6c-0.2-0.2-0.3-0.3-0.5-0.5l-45.4-54.1c-2.7-3.3-4.7-6.4-6.1-9.7
			c-2.4-5.7-3.3-12-2.6-18.2c1.8-17.3,15.6-31.3,32.9-33.2c10.6-1.2,21.2,2.2,29.1,9.3c1.7,1.5,3.3,3.2,4.7,5c1.4-1.8,2.9-3.5,4.7-5
			c7.9-7.1,18.5-10.5,29.1-9.3c17.2,1.9,31.1,15.8,32.9,33.1c0.7,6.2-0.2,12.4-2.5,18.1c-1.4,3.3-3.4,6.6-6.1,9.8l-45.8,54.1
			c-0.1,0.2-0.3,0.3-0.4,0.5C158.6,214.1,154.5,216,150.4,216z M149.6,199.6c0.3,0.3,0.5,0.5,0.7,0.6c0.2-0.1,0.4-0.3,0.7-0.6
			l45.6-53.9c1.7-2,2.9-3.9,3.6-5.7c1.4-3.4,1.9-6.9,1.5-10.6c-1.1-10.1-9.1-18.2-19.2-19.3c-6.3-0.7-12.4,1.2-17.1,5.4
			c-4.6,4.1-7.3,10.1-7.3,16.2c0,4.3-3.5,7.8-7.8,7.8c-4.3,0-7.8-3.5-7.8-7.8c0-6.2-2.6-12.1-7.3-16.2c-4.7-4.2-10.7-6.1-17.1-5.4
			c-10.1,1.1-18.1,9.2-19.2,19.3c-0.4,3.7,0.1,7.3,1.5,10.7c0.7,1.8,1.9,3.6,3.6,5.7L149.6,199.6z"/>
	</g>
	<g>
		<path class="st2" d="M67.2,88.4c-12.4,0-22.5-10.1-22.5-22.5c0-12.4,10.1-22.5,22.5-22.5c12.4,0,22.5,10.1,22.5,22.5
			C89.7,78.3,79.6,88.4,67.2,88.4z M67.2,55.9c-5.5,0-10,4.5-10,10c0,5.5,4.5,10,10,10c5.5,0,10-4.5,10-10
			C77.3,60.4,72.8,55.9,67.2,55.9z"/>
	</g>
	<g>
		<path class="st2" d="M233.9,87.7c-12.4,0-22.5-10.1-22.5-22.5s10.1-22.5,22.5-22.5c12.4,0,22.5,10.1,22.5,22.5
			S246.3,87.7,233.9,87.7z M233.9,55.3c-5.5,0-10,4.5-10,10s4.5,10,10,10s10-4.5,10-10S239.4,55.3,233.9,55.3z"/>
	</g>
	<g>
		<path class="st2" d="M67.2,258c-12.4,0-22.5-10.1-22.5-22.5c0-12.4,10.1-22.5,22.5-22.5c12.4,0,22.5,10.1,22.5,22.5
			C89.7,247.9,79.6,258,67.2,258z M67.2,225.5c-5.5,0-10,4.5-10,10s4.5,10,10,10c5.5,0,10-4.5,10-10S72.8,225.5,67.2,225.5z"/>
	</g>
	<g>
		<path class="st2" d="M233.9,257.3c-12.4,0-22.5-10.1-22.5-22.5c0-12.4,10.1-22.5,22.5-22.5c12.4,0,22.5,10.1,22.5,22.5
			C256.3,247.2,246.3,257.3,233.9,257.3z M233.9,224.8c-5.5,0-10,4.5-10,10s4.5,10,10,10s10-4.5,10-10S239.4,224.8,233.9,224.8z"/>
	</g>
	<g>
		<path class="st2" d="M150.5,291.5c-5.8,0-11.5-2.2-15.9-6.6c-4.2-4.2-6.6-9.9-6.6-15.9c0-6,2.3-11.6,6.6-15.9l0,0l0,0
			c8.8-8.8,23-8.8,31.8,0c8.8,8.8,8.8,23,0,31.8C162,289.3,156.3,291.5,150.5,291.5z M150.5,259c-2.6,0-5.1,1-7.1,2.9l0,0
			c-1.9,1.9-2.9,4.4-2.9,7.1c0,2.7,1,5.2,2.9,7.1c3.9,3.9,10.3,3.9,14.2,0c3.9-3.9,3.9-10.3,0-14.2C155.7,260,153.1,259,150.5,259z
			 M139,257.6L139,257.6L139,257.6z"/>
	</g>
	<g>
		<path class="st2" d="M31.5,174.1c-5.8,0-11.5-2.2-15.9-6.6c-4.2-4.2-6.6-9.9-6.6-15.9c0-6,2.3-11.6,6.6-15.9
			c8.8-8.8,23-8.8,31.8,0c4.2,4.2,6.6,9.9,6.6,15.9c0,6-2.3,11.6-6.6,15.9C43,171.9,37.2,174.1,31.5,174.1z M31.5,141.7
			c-2.6,0-5.1,1-7.1,2.9c-1.9,1.9-2.9,4.4-2.9,7.1c0,2.7,1,5.2,2.9,7.1c3.9,3.9,10.3,3.9,14.2,0c1.9-1.9,2.9-4.4,2.9-7.1
			c0-2.7-1-5.2-2.9-7.1C36.6,142.6,34,141.7,31.5,141.7z"/>
	</g>
	<g>
		<path class="st2" d="M269.7,171.6c-5.8,0-11.5-2.2-15.9-6.6c-4.2-4.2-6.6-9.9-6.6-15.9s2.3-11.6,6.6-15.9l0,0c0,0,0,0,0,0
			c8.7-8.8,23-8.8,31.8,0c4.2,4.2,6.6,9.9,6.6,15.9s-2.3,11.6-6.6,15.9C281.2,169.4,275.4,171.6,269.7,171.6z M269.7,139.1
			c-2.6,0-5.1,1-7.1,2.9v0c-1.9,1.9-2.9,4.4-2.9,7.1s1,5.2,2.9,7.1c3.9,3.9,10.3,3.9,14.2,0c1.9-1.9,2.9-4.4,2.9-7.1s-1-5.2-2.9-7.1
			C274.8,140.1,272.2,139.1,269.7,139.1z M258.2,137.6L258.2,137.6L258.2,137.6z"/>
	</g>
	<g>
		<path class="st2" d="M150.6,54.2c-5.7,0-11.5-2.2-15.9-6.6c-8.8-8.8-8.8-23,0-31.8v0c8.8-8.7,23-8.8,31.8,0c8.8,8.8,8.8,23,0,31.8
			C162.1,52,156.3,54.2,150.6,54.2z M143.5,24.7c-3.9,3.9-3.9,10.3,0,14.2c3.9,3.9,10.3,3.9,14.2,0c3.9-3.9,3.9-10.3,0-14.2
			C153.7,20.8,147.4,20.8,143.5,24.7L143.5,24.7z"/>
	</g>
</g>
</svg>
