<?xml version="1.0" encoding="utf-8"?>
<!-- Generator: Adobe Illustrator 19.2.1, SVG Export Plug-In . SVG Version: 6.00 Build 0)  -->
<svg version="1.1" id="Layer_1" xmlns="http://www.w3.org/2000/svg" xmlns:xlink="http://www.w3.org/1999/xlink" x="0px" y="0px"
	 viewBox="0 0 300 300" style="enable-background:new 0 0 300 300;" xml:space="preserve">
<style type="text/css">
	.st0{fill:#F1F0F1;}
	.st1{fill:#423F3D;}
</style>
<g>
	<circle class="st0" cx="136.3" cy="127.1" r="62.3"/>
</g>
<g>
	<g>
		<path class="st1" d="M170.7,118.8c3.8,0,6.9-3.1,6.9-6.9c0-3.8-3.1-6.9-6.9-6.9s-6.9,3.1-6.9,6.9
			C163.8,115.7,166.9,118.8,170.7,118.8z M175,127.1c-3,0-5.5,2.4-5.5,5.5c0,12.7-6.3,24.5-17,31.5c-2.5,1.7-3.2,5-1.5,7.5
			c1.1,1.6,2.8,2.4,4.5,2.4c1,0,2.1-0.3,3-0.9c13.7-9,21.9-24.3,21.9-40.6C180.4,129.5,178,127.1,175,127.1z M255,236.5l-28.7-28.7
			l-20.5,20.5l28.7,28.7c0,0,4,1.5,5.9-0.4c3.7-3.7,9.7-9.7,13.6-13.6C256.2,240.7,255,236.5,255,236.5z M209.2,190.7L204,196
			l-15-15c11.9-14.1,19.1-32.5,19.1-52.4c0-45-36.5-81.5-81.5-81.5s-81.5,36.5-81.5,81.5S81.5,210,126.6,210
			c20,0,38.2-7.2,52.4-19.1l15,15l-5.2,5.2l12.1,12.1l20.5-20.5L209.2,190.7z M126.6,196.2c-37.4,0-67.7-30.3-67.7-67.7
			s30.3-67.7,67.7-67.7s67.7,30.3,67.7,67.7S163.9,196.2,126.6,196.2z"/>
	</g>
</g>
</svg>
