<?xml version="1.0" encoding="utf-8"?>
<!-- Generator: Adobe Illustrator 19.2.1, SVG Export Plug-In . SVG Version: 6.00 Build 0)  -->
<svg version="1.1" id="Layer_1" xmlns="http://www.w3.org/2000/svg" xmlns:xlink="http://www.w3.org/1999/xlink" x="0px" y="0px"
	 viewBox="0 0 300 300" style="enable-background:new 0 0 300 300;" xml:space="preserve">
<style type="text/css">
	.st0{fill:#F1F0F1;}
	.st1{fill:#FBD900;}
	.st2{fill:#423F3D;}
</style>
<g>
	<path class="st0" d="M245,217l27.4-1.7h-34.5c0-30.1-23.3-30.1-38.8-30.1h-66.7c0,0,7.2,29.9,33.1,29.9c6.4,0,10.8,0.3,13.9,0.8
		l-54-0.8l-23.2-26.3c-11-11-24.8-31.5-52.6-13.1l53.2,62.6c0,0,13.1,15.3,32.4,15.3c19.3,0,151.3,0.1,151.3,0.1v-36L245,217z"/>
</g>
<g>
	<path class="st0" d="M176,73.2c0-12.7,11-22.8,24-21.4c9.9,1.1,17.9,9.1,18.9,19c0.4,3.7-0.2,7.3-1.5,10.5
		c-0.8,2.1-2.1,3.9-3.5,5.6l-33.3,39.4c-3.2,3.2-6,3.3-9.4,0l-33-39.3c-1.4-1.7-2.7-3.5-3.5-5.6c-1.3-3.2-1.9-6.8-1.5-10.5
		c1-9.9,9-18,18.9-19.1C165,50.4,176,60.5,176,73.2"/>
</g>
<g>
	<line class="st1" x1="92.2" y1="151.7" x2="117.3" y2="180.5"/>
</g>
<g>
	<line class="st1" x1="122.9" y1="146.9" x2="150.9" y2="181"/>
</g>
<g>
	<g>
		<path class="st2" d="M288.5,223.8h-42.7c-4.1,0-7.4-3.3-7.4-7.4c0-27.6-16.8-29.7-40.5-29.7H126c4.4,9.2,13.5,22,30.3,22h24.9
			v14.9h-0.9c-4.1,0-7.4-3.3-7.4-7.4c0-1,0.2-1.9,0.5-2.8l-17.1,10.2c-29.9,0-44.6-27.9-48.2-42.6c-0.5-2.2,0-4.6,1.4-6.4
			c1.4-1.8,3.6-2.8,5.9-2.8h82.4c16.9,0,51.1,0,55.1,37.2h35.6c4.1,0,7.4,3.3,7.4,7.4S292.6,223.8,288.5,223.8z"/>
	</g>
	<g>
		<path class="st2" d="M290.2,271.2c0,0-147.6-0.2-171.4-0.2c-26.9,0-44.9-20.6-45.6-21.5L7.4,172.2c-1.4-1.6-2-3.8-1.7-5.9
			c0.3-2.1,1.5-4,3.3-5.2c35.8-23.7,57.2-1,70,12.6c1.5,1.6,3,3.2,4.4,4.6c0.1,0.1,0.2,0.2,0.3,0.3l26.5,30h52.2
			c4.1,0,7.4,3.3,7.4,7.4c0,4.1-3.3,7.4-7.4,7.4h-55.6c-2.1,0-4.2-0.9-5.6-2.5l-28.5-32.3c-1.5-1.5-3-3.1-4.5-4.7
			c-11.8-12.5-23-24.5-43.5-14.6l60,70.5c0.1,0.1,14.4,16.2,34.3,16.2c23.8,0,171.5,0.2,171.5,0.2L290.2,271.2z"/>
	</g>
	<g>
		<path class="st2" d="M167.8,152.1c-4.1,0-8.2-1.9-11.9-5.6c-0.2-0.2-0.3-0.3-0.4-0.5l-46.7-55.6c-2.8-3.3-4.8-6.5-6.2-9.8
			c-2.4-5.8-3.3-12.1-2.7-18.4c1.8-17.5,15.8-31.7,33.4-33.6c10.8-1.2,21.5,2.2,29.5,9.4c1.9,1.7,3.6,3.6,5.2,5.7
			c1.5-2,3.2-3.9,5.2-5.7c8-7.2,18.8-10.6,29.5-9.4c17.5,1.9,31.5,16,33.4,33.5c0.7,6.3-0.2,12.6-2.6,18.4c-1.4,3.4-3.4,6.6-6.2,10
			l-47.1,55.7c-0.1,0.2-0.3,0.3-0.4,0.5C176,150.3,171.9,152.1,167.8,152.1z M166.7,136.2c0.5,0.5,0.9,0.8,1.1,0.9
			c0.2-0.1,0.6-0.4,1.1-0.9l46.9-55.4c1.8-2.1,3-4.1,3.8-6c1.4-3.5,2-7.3,1.6-11.2c-1.1-10.6-9.6-19.1-20.2-20.3
			c-6.7-0.7-13,1.3-17.9,5.7c-4.9,4.4-7.6,10.6-7.6,17.1c0,4.1-3.3,7.4-7.4,7.4s-7.4-3.3-7.4-7.4c0-6.5-2.8-12.8-7.6-17.1
			c-4.9-4.4-11.3-6.4-18-5.7c-10.6,1.2-19.1,9.7-20.2,20.4c-0.4,3.9,0.1,7.7,1.6,11.2c0.8,1.9,2,3.8,3.8,6L166.7,136.2z"/>
	</g>
	<g>
		<path class="st2" d="M113,186.3c-2.1,0-4.1-0.9-5.6-2.5L79,151.3c-2.7-3.1-2.4-7.8,0.7-10.5c3.1-2.7,7.8-2.4,10.5,0.7l28.4,32.5
			c2.7,3.1,2.4,7.8-0.7,10.5C116.5,185.7,114.7,186.3,113,186.3z"/>
	</g>
	<g>
		<path class="st2" d="M150.8,186.8c-2.2,0-4.3-0.9-5.8-2.7l-31.5-38.4c-2.6-3.2-2.1-7.9,1-10.5c3.2-2.6,7.9-2.1,10.5,1l31.5,38.4
			c2.6,3.2,2.1,7.9-1,10.5C154.1,186.2,152.5,186.8,150.8,186.8z"/>
	</g>
</g>
</svg>
