<svg width="17" height="20" viewBox="0 0 17 20" fill="none" xmlns="http://www.w3.org/2000/svg">
<path d="M16.6312 17.741C16.9935 16.9292 16.0693 16.0995 16.1302 15.8224C16.4224 14.4796 15.4504 14.2998 14.7547 13.811C14.6526 13.7399 14.5786 13.621 14.5047 13.5152C13.0158 11.3531 11.6113 9.11794 9.21509 7.79391C8.96507 7.6572 8.56711 7.62443 8.81713 7.12066C8.9838 6.78638 9.12426 6.55509 9.51192 6.71989C9.93048 6.89687 10.1786 6.72645 10.4511 6.4137C10.9839 5.80225 10.5288 5.55224 10.2339 5.0082C9.64769 3.92669 9.26565 3.29464 7.89667 3.98287C7.33017 4.2694 6.2318 3.672 6.34791 3.02122C6.62133 1.47995 5.07912 1.34979 4.65495 0.395628C4.44894 -0.0678772 3.87214 -0.0894137 3.47137 0.152171C3.06779 0.395628 3.06873 0.84415 3.30001 1.25428C3.50695 1.62134 3.63149 1.96124 3.53692 2.42194C3.40676 3.06148 2.89925 3.08115 2.68482 2.79087C1.90763 1.74401 1.63889 2.81053 1.20347 3.08489C0.908517 3.27029 0.970318 3.7235 0.580786 3.92014C-1.07379 4.76287 1.41135 5.53819 0.653823 6.41838C0.511495 6.58412 0.732479 6.84818 0.960017 6.94556C1.08268 6.99706 1.24655 7.05043 1.35985 7.01017C2.68014 6.55603 2.53219 7.70964 2.44042 8.22652C2.3009 9.00933 2.24566 9.81273 2.04996 10.5862C1.96568 10.9214 1.55461 11.3081 1.92823 11.5797C2.33274 11.8718 2.65954 11.4383 2.99008 11.1948C3.75228 10.6367 4.41149 9.6676 5.53982 10.736C5.89002 11.0675 6.37975 10.6077 6.70935 10.3006C7.64479 9.43257 8.24032 9.47002 9.01189 10.4598C9.71417 11.3596 10.6871 12.0975 10.3238 13.5123C10.187 14.0442 10.761 14.5143 11.1581 14.8635C11.644 15.2868 12.3978 15.5321 12.0813 16.3599C11.8276 17.0294 12.3538 17.8272 11.8304 18.3497C11.1 19.081 11.1262 19.3375 12.1899 19.4237C12.5167 19.4499 12.8211 19.7392 13.3155 20.0005C13.4334 18.9929 13.47 18.1521 14.8418 18.8103C15.5618 19.1549 16.2875 18.5126 16.6312 17.741Z" fill="black"/>
</svg>
