<svg width="161" height="75" viewBox="0 0 161 75" fill="none" xmlns="http://www.w3.org/2000/svg">
<path d="M161 0H0V75H161V0Z" fill="white"/>
<path d="M141.546 7H21.1406V69.7379H141.546V7Z" fill="#A6D1A1"/>
<path fill-rule="evenodd" clip-rule="evenodd" d="M25.953 7H21.1406V20.175V69.7379H53.5623H141.546V13.6661L138.218 15.516L135.682 16.0468L135.774 18.1846L133.362 21.157L133.27 17.8131L136.419 14.0063L134.48 14.2923L131.967 16.3299L128.9 16.1471L126.586 18.3764L128.251 19.5795L126.308 24.9609L124.642 25.2469L123.616 26.7302L124.076 28.6793L122.873 29.3221L122.498 27.5617L121.472 26.164L120.081 27.6414L121.192 30.7936L119.62 33.6774L116.182 33.8603L115.445 35.0693L117.017 37.387L115.351 38.7817L113.64 37.0037L113.578 38.6786L115.07 40.3534L115.722 43.3199L117.582 43.9805L120.095 45.0007L115.454 44.1692L113.502 42.3144L111.744 39.802L114.145 41.0111L113.033 38.9793L112.806 36.2046L111.744 36.4729L110.447 33.6951L106.823 36.2046V37.7939L105.522 39.0855L103.863 34.91L102.011 32.6808L97.5519 31.8463L96.2574 30.7405L95.6028 31.1091L96.5258 33.3384L98.0057 32.5953L99.9583 34.0785L94.211 37.5109L91.2328 31.6664L90.6105 31.7755L93.6448 38.7169L96.6142 37.3222L95.6913 40.5746L92.7189 43.258L93.1789 47.2506L91.5099 48.5451L88.4579 54.2982L85.3912 54.8555L82.702 48.3594L83.3566 45.3929L81.6847 40.1883L76.023 40.5569L72.8619 37.4961L73.4222 32.4862L76.4859 28.7737L82.4218 27.7534L82.7963 29.3251L85.2114 30.8997L86.1343 29.6052L89.8203 30.5488L90.7727 29.9738L91.1943 28.5879L88.6496 28.1603L87.8269 26.7391L87.2283 26.4323L86.7034 28.234L85.5681 26.8039L85.6419 25.6067L84.1262 24.4066L83.2268 23.9554L83.3035 25.1585L85.1848 26.4353L84.2058 27.5676L82.8582 25.763L81.8821 24.6306L79.6264 25.763L78.0488 28.2429L75.6456 27.8684L75.4952 24.8636L78.5707 25.0789L77.6006 23.5101L76.9961 22.2244L79.3256 21.4696L80.6024 19.7475L81.6551 19.6679L81.4281 18.6948L82.1034 17.7895L82.6311 19.2904L85.5593 19.3642L86.382 17.2558L87.5173 17.6362L87.1369 16.2119L88.8826 15.6546L88.3399 15.0118L86.7595 15.4541L86.205 14.1065L86.1372 14.0977L86.1844 14.0033L85.9544 13.4371L86.5884 12.986L87.1428 11.5735L86.5559 11.4851L85.577 12.6882L84.7543 14.484L85.6654 15.457L84.7543 17.8633L83.4008 18.3911L82.6548 15.9908L81.0742 16.8931L80.3252 16.4449L80.396 14.1154L81.7525 13.0715L82.8818 10.2908L85.7392 8.71913L92.8693 10.0284C101.094 9.1644 116.017 7.58091 116.017 7.58091L140.639 11.0575L141.546 13.601V7H25.953ZM25.953 7L22.1314 9.27055L23.5468 11.3966H21.9869L21.5682 12.9536L23.6884 13.2337L21.5682 14.9351L22.2671 17.3414L24.11 17.7689L21.1406 20.175L25.8115 17.9045L28.3592 16.4891L32.4698 19.0398L35.7252 24.5599V29.5197L37.7039 33.1998L40.9652 38.2952L44.9283 39.7136L46.6297 40.5628L48.6054 43.1046L49.9943 42.8953L48.4727 45.387L49.7378 50.4795L52.43 52.8857L49.1745 66.0519L50.3157 68.8857L53.5623 69.7379L51.5836 67.6088L54.2729 62.5134L60.0761 57.5536L60.5066 55.2831L63.3404 54.8525L66.1712 49.0523L61.2172 46.6461L60.6423 44.3815L56.8265 41.5477L51.162 40.9816L50.3186 42.3586L49.1745 41.9783L48.6054 39.8581L46.9098 39.7371L47.6176 37.7172L46.1993 37.5787L44.7868 38.7169L43.7989 37.2985L44.6482 34.8953L48.4727 34.3321L49.1745 36.3136L50.1682 36.1751V34.3321L52.8575 30.6491L56.2545 28.8031L60.6423 26.8304L57.5283 19.8861L56.11 20.7324L54.9865 17.6244L52.2854 17.763L51.5836 23.2831L50.5929 23.4246L46.4853 19.0398L47.3375 16.7663L51.5836 15.92V10.5356L40.9652 11.6767L35.448 8.42131L32.8914 10.8275L25.953 7ZM127.977 47.7844L128.284 45.3841L129.817 48.2502L132.333 50.7597L131.41 55.7548L129.735 56.784L127.42 56.1294L126.866 54.4515L126.031 54.9115L124.268 53.8824L119.723 55.0058L118.6 54.3601L118.884 53.5256L118.14 49.3619L121.204 48.2502L124.091 45.5609L126.32 45.7467L125.946 47.0413L127.977 47.7844ZM119.438 43.5175L117.028 43.0574L116.651 41.5713L119.898 39.5278L120.553 40.0911L119.438 43.5175ZM126.951 44.7235L124.445 42.1227L126.391 41.9429L130.198 43.7917L131.032 45.5551L128.991 44.2636L128.387 44.8179L126.951 44.7235ZM128.342 21.0656H128.995L129.265 22.1832L128.711 24.1382L129.729 24.9668L128.437 26.1669L128.251 28.582L124.356 30.8997L124.448 29.5079L126.582 27.9333L128.251 24.4036L128.342 21.0656ZM139.3 57.3383L139.023 54.7464L140.404 55.858L141.238 55.9495L139.94 57.7069L138.28 60.2193L136.425 60.0335L139.3 57.3383ZM76.9872 18.4028V15.6988L76.3886 17.5064H75.0322L75.1089 16.0851L76.2382 14.7228L76.1645 13.6789L77.3647 12.8444L79.3964 16.7545L78.8656 17.5802L76.9872 18.4028ZM93.8866 50.5415L93.9603 47.5307L95.9861 45.9502L96.2928 47.46L95.0956 51.0663L93.8866 50.5415ZM89.5401 23.4246L93.4443 25.4534L92.7808 26.5768L91.1265 26.1257L88.8649 26.4972L88.3399 25.5271L89.5401 23.4246ZM97.2013 25.6745L97.5665 28.0011L95.4731 27.8536L95.8417 26.4294L95.0219 24.324L97.3543 23.0471V24.1707L96.4432 24.5481L97.2013 25.6745ZM61.8335 9.17619L63.9242 9.75119L65.7229 12.8327L66.4896 14.3867L65.3927 16.4478L65.3308 17.5153L64.2663 18.1699L64.1425 20.9831L62.5707 20.5938L59.2475 11.9392L61.8335 9.17619Z" fill="white"/>
<path d="M22.366 35.6531C21.596 35.1993 20.771 34.828 19.8909 34.5393C19.0246 34.2505 18.2958 34.1061 17.7045 34.1061C17.237 34.1061 16.8657 34.1955 16.5907 34.3743C16.3295 34.5393 16.1988 34.7868 16.1988 35.1168C16.1988 35.4331 16.3157 35.7012 16.5495 35.9212C16.7832 36.1275 17.072 36.2994 17.4158 36.4369C17.7595 36.5606 18.2683 36.7257 18.9421 36.9319C19.9459 37.2207 20.771 37.5094 21.4172 37.7982C22.0773 38.087 22.6411 38.5339 23.1086 39.1389C23.5761 39.7302 23.8099 40.5071 23.8099 41.4697C23.8099 42.4322 23.5555 43.2573 23.0467 43.9448C22.5379 44.6186 21.8366 45.1274 20.9428 45.4711C20.0628 45.8149 19.0796 45.9868 17.9933 45.9868C16.797 45.9868 15.6007 45.7805 14.4044 45.368C13.2218 44.9417 12.1974 44.3642 11.3311 43.6354L12.7955 40.6859C13.5243 41.3322 14.3837 41.8616 15.3738 42.2741C16.3776 42.6866 17.2645 42.8929 18.0346 42.8929C18.5983 42.8929 19.0384 42.7897 19.3546 42.5835C19.6846 42.3772 19.8497 42.0747 19.8497 41.6759C19.8497 41.3459 19.7259 41.0709 19.4784 40.8509C19.2446 40.6309 18.9421 40.459 18.5708 40.3352C18.2133 40.1977 17.7045 40.0396 17.0445 39.8608C16.0544 39.5858 15.2363 39.3108 14.59 39.0358C13.9437 38.747 13.3868 38.3207 12.9193 37.757C12.4655 37.1794 12.2386 36.4163 12.2386 35.4675C12.2386 34.5737 12.4724 33.7899 12.9399 33.1161C13.4212 32.4423 14.095 31.9266 14.9613 31.5691C15.8413 31.1978 16.8589 31.0122 18.0139 31.0122C19.059 31.0122 20.0903 31.1635 21.1079 31.466C22.1254 31.7547 23.0192 32.1466 23.7893 32.6417L22.366 35.6531ZM24.4799 31.301H36.8762V34.4155H32.5447V45.7599H28.7701V34.4155H24.4799V31.301ZM41.9349 39.799C41.9349 40.7065 42.2031 41.4353 42.7394 41.9853C43.2756 42.5354 43.9563 42.8104 44.7813 42.8104C45.5926 42.8104 46.2458 42.5422 46.7408 42.0059C47.2496 41.4559 47.504 40.7203 47.504 39.799V31.301H51.2786V39.799C51.2786 41.0503 51.0104 42.1503 50.4742 43.0991C49.9516 44.0342 49.1953 44.7561 48.2053 45.2649C47.229 45.7737 46.0808 46.028 44.7607 46.028C43.4406 46.028 42.2787 45.7737 41.2749 45.2649C40.2848 44.7561 39.5148 44.0342 38.9648 43.0991C38.4285 42.1503 38.1604 41.0503 38.1604 39.799V31.301H41.9349V39.799ZM60.0865 31.301C61.599 31.301 62.9329 31.6035 64.0879 32.2085C65.2568 32.8136 66.1643 33.6661 66.8106 34.7662C67.4569 35.8525 67.78 37.1038 67.78 38.5201C67.78 39.9365 67.45 41.1947 66.79 42.2947C66.1437 43.3948 65.2224 44.2473 64.0261 44.8524C62.8435 45.4574 61.4822 45.7599 59.9421 45.7599H53.8574V31.301H60.0865ZM60.1896 42.7072C60.9184 42.7072 61.5647 42.5354 62.1285 42.1916C62.6922 41.8478 63.1323 41.3597 63.4485 40.7271C63.7648 40.0946 63.9229 39.3727 63.9229 38.5614C63.9229 37.7363 63.751 37.0075 63.4073 36.375C63.0773 35.7425 62.6166 35.2543 62.0253 34.9106C61.434 34.553 60.7603 34.3743 60.004 34.3743H57.632V42.7072H60.1896ZM82.3171 31.301L77.0987 41.1396V45.7599H73.3241V41.2428L68.0025 31.301H71.7771L75.2011 37.5094L78.5425 31.301H82.3171ZM95.0491 31.301C96.1354 31.301 97.0774 31.4522 97.875 31.7547C98.6862 32.0435 99.3119 32.4629 99.7519 33.0129C100.192 33.563 100.412 34.2093 100.412 34.9518C100.412 35.7081 100.185 36.3681 99.7313 36.9319C99.2913 37.4957 98.6862 37.8807 97.9162 38.087C98.8375 38.2657 99.5594 38.6851 100.082 39.3452C100.618 40.0052 100.886 40.8028 100.886 41.7378C100.886 42.5491 100.659 43.2641 100.206 43.8829C99.7519 44.488 99.1057 44.9555 98.2669 45.2855C97.4281 45.6018 96.4448 45.7599 95.3172 45.7599H88.1806V31.301H95.0491ZM94.8428 37.0557C95.3654 37.0557 95.7779 36.9319 96.0804 36.6844C96.3829 36.4231 96.5342 36.0656 96.5342 35.6118C96.5342 35.1718 96.3829 34.8349 96.0804 34.6012C95.7779 34.3536 95.3654 34.2368 94.8428 34.2505H91.9552V37.0557H94.8428ZM94.8428 42.831C95.5029 42.831 96.0254 42.6935 96.4104 42.4185C96.7954 42.1435 96.988 41.7584 96.988 41.2634C96.988 40.8096 96.7954 40.4521 96.4104 40.1908C96.0254 39.9158 95.5029 39.7852 94.8428 39.799H91.9552V42.831H94.8428ZM106.473 39.799C106.473 40.7065 106.741 41.4353 107.277 41.9853C107.813 42.5354 108.494 42.8104 109.319 42.8104C110.13 42.8104 110.784 42.5422 111.279 42.0059C111.787 41.4559 112.042 40.7203 112.042 39.799V31.301H115.816V39.799C115.816 41.0503 115.548 42.1503 115.012 43.0991C114.489 44.0342 113.733 44.7561 112.743 45.2649C111.767 45.7737 110.618 46.028 109.298 46.028C107.978 46.028 106.816 45.7737 105.813 45.2649C104.823 44.7561 104.052 44.0342 103.502 43.0991C102.966 42.1503 102.698 41.0503 102.698 39.799V31.301H106.473V39.799ZM118.395 31.301H122.169V45.7599H118.395V31.301ZM124.981 31.301H128.756V42.5422H134.882V45.7599H124.981V31.301ZM142.833 31.301C144.346 31.301 145.68 31.6035 146.835 32.2085C148.003 32.8136 148.911 33.6661 149.557 34.7662C150.204 35.8525 150.527 37.1038 150.527 38.5201C150.527 39.9365 150.197 41.1947 149.537 42.2947C148.89 43.3948 147.969 44.2473 146.773 44.8524C145.59 45.4574 144.229 45.7599 142.689 45.7599H136.604V31.301H142.833ZM142.936 42.7072C143.665 42.7072 144.311 42.5354 144.875 42.1916C145.439 41.8478 145.879 41.3597 146.195 40.7271C146.511 40.0946 146.67 39.3727 146.67 38.5614C146.67 37.7363 146.498 37.0075 146.154 36.375C145.824 35.7425 145.363 35.2543 144.772 34.9106C144.181 34.553 143.507 34.3743 142.751 34.3743H140.379V42.7072H142.936Z" fill="#A6D1A1"/>
<mask id="mask0" mask-type="alpha" maskUnits="userSpaceOnUse" x="21" y="7" width="121" height="63">
<path d="M61.2108 46.6461L66.1639 49.0523L63.3336 54.8525L60.5003 55.2831L60.0698 57.5536L54.2676 62.5134L51.5787 67.6088L53.557 69.7379L50.311 68.8857L49.17 66.0519L52.4249 52.8857L49.7331 50.4795L48.4683 45.387L49.9896 42.8953L48.601 43.1046L46.6256 40.5628L44.9245 39.7136L40.9619 38.2952L37.7012 33.1998L35.7229 29.5197V24.5599L32.468 19.0398L28.3581 16.4891L25.8107 17.9045L21.1406 20.175L24.1096 17.7689L22.2669 17.3414L21.5681 14.9351L23.688 13.2337L21.5681 12.9536L21.9868 11.3966H23.5464L22.1313 9.27055L25.9522 7L32.8895 10.8275L35.4457 8.42131L40.9619 11.6767L51.5787 10.5356V15.92L47.3333 16.7663L46.4811 19.0398L50.5882 23.4246L51.5787 23.2831L52.2804 17.763L54.9811 17.6244L56.1044 20.7324L57.5225 19.8861L60.6359 26.8304L56.2488 28.8031L52.8524 30.6491L50.1636 34.3321V36.1751L49.17 36.3136L48.4683 34.3321L44.6444 34.8953L43.7953 37.2985L44.7829 38.7169L46.1952 37.5787L47.6133 37.7172L46.9057 39.7371L48.601 39.8581L49.17 41.9783L50.3139 42.3586L51.1572 40.9815L56.8208 41.5477L60.6359 44.3815L61.2108 46.6461ZM128.267 45.3841L127.96 47.7844L125.928 47.0413L126.303 45.7467L124.075 45.5609L121.188 48.2502L118.125 49.3619L118.867 53.5256L118.585 54.3601L119.708 55.0058L124.251 53.8824L126.014 54.9115L126.849 54.4515L127.403 56.1294L129.718 56.784L131.392 55.7548L132.315 50.7597L129.8 48.2502L128.267 45.3841ZM117.013 43.0574L119.422 43.5175L120.536 40.0911L119.881 39.5278L116.635 41.5713L117.013 43.0574ZM124.428 42.1227L126.934 44.7235L128.37 44.8179L128.974 44.2636L131.014 45.5551L130.18 43.7917L126.374 41.9429L124.428 42.1227ZM128.978 21.0656H128.325L128.234 24.4036L126.565 27.9333L124.431 29.5079L124.339 30.8997L128.234 28.582L128.42 26.1669L129.712 24.9668L128.694 24.1382L129.248 22.1832L128.978 21.0656ZM139.004 54.7464L139.281 57.3383L136.407 60.0335L138.261 60.2193L139.921 57.7069L141.218 55.9495L140.384 55.858L139.004 54.7464ZM76.9783 15.6988V18.4028L78.8563 17.5802L79.387 16.7545L77.3557 12.8444L76.1557 13.6789L76.2294 14.7228L75.1002 16.0851L75.0235 17.5064H76.3798L76.9783 15.6988ZM93.9486 47.5307L93.8749 50.5415L95.0837 51.0663L96.2808 47.46L95.9741 45.9502L93.9486 47.5307ZM135.664 16.0468L135.755 18.1846L133.343 21.157L133.252 17.8131L136.401 14.0063L134.461 14.2923L131.949 16.3299L128.883 16.1471L126.569 18.3764L128.234 19.5795L126.291 24.9609L124.625 25.2469L123.599 26.7302L124.059 28.6793L122.857 29.3221L122.482 27.5617L121.456 26.164L120.065 27.6414L121.176 30.7936L119.605 33.6774L116.167 33.8603L115.43 35.0693L117.002 37.387L115.335 38.7818L113.626 37.0037L113.564 38.6786L115.056 40.3534L115.707 43.3199L117.567 43.9805L120.079 45.0007L115.439 44.1692L113.487 42.3144L111.73 39.802L114.129 41.0111L113.018 38.9793L112.791 36.2046L111.73 36.4729L110.432 33.6951L106.809 36.2046V37.7939L105.508 39.0855L103.849 34.91L101.998 32.6808L97.5399 31.8463L96.2453 30.7405L95.5908 31.1091L96.5136 33.3384L97.9937 32.5953L99.9454 34.0785L94.1992 37.5108L91.2214 31.6664L90.5994 31.7755L93.6331 38.7169L96.6021 37.3222L95.6792 40.5746L92.7074 43.258L93.1673 47.2506L91.4986 48.5451L88.4471 54.2982L85.3809 54.8555L82.6921 48.3594L83.3466 45.3929L81.6749 40.1883L76.0142 40.5569L72.8536 37.4961L73.4137 32.4862L76.4771 28.7737L82.412 27.7534L82.7864 29.3251L85.2011 30.8997L86.1238 29.6052L89.8092 30.5488L90.7615 29.9738L91.1831 28.5879L88.6388 28.1603L87.8162 26.7391L87.2177 26.4323L86.6929 28.234L85.5578 26.8039L85.6315 25.6067L84.116 24.4066L83.2168 23.9554L83.2935 25.1585L85.1745 26.4353L84.1956 27.5676L82.8483 25.763L81.8724 24.6306L79.617 25.763L78.0397 28.2429L75.6368 27.8684L75.4864 24.8636L78.5615 25.0789L77.5915 23.5101L76.9871 22.2244L79.3163 21.4696L80.5928 19.7475L81.6454 19.6679L81.4184 18.6948L82.0936 17.7895L82.6213 19.2904L85.549 19.3642L86.3715 17.2558L87.5066 17.6362L87.1263 16.2119L88.8717 15.6546L88.3292 15.0118L86.7489 15.4541L86.1946 14.1065L86.1268 14.0977L86.1739 14.0033L85.944 13.4371L86.5779 12.986L87.1322 11.5735L86.5455 11.4851L85.5667 12.6882L84.744 14.484L85.6551 15.457L84.744 17.8633L83.3908 18.3911L82.6449 15.9908L81.0646 16.8931L80.3158 16.4449L80.3865 14.1154L81.7427 13.0715L82.8719 10.2908L85.7288 8.71913L92.8577 10.0284C101.081 9.1644 116.002 7.58091 116.002 7.58091L140.62 11.0575L141.546 13.6554L138.199 15.516L135.664 16.0468ZM93.4326 25.4534L89.5291 23.4246L88.3292 25.5271L88.854 26.4972L91.1153 26.1257L92.7693 26.5768L93.4326 25.4534ZM97.5545 28.0011L97.1884 25.6745L96.4311 24.5481L97.3422 24.1707V23.0471L95.01 24.324L95.8296 26.4294L95.4611 27.8536L97.5545 28.0011ZM63.9174 9.75119L61.827 9.17619L59.2413 11.9392L62.564 20.5938L64.1355 20.9831L64.2593 18.1699L65.3236 17.5153L65.3856 16.4478L66.4823 14.3867L65.7158 12.8327L63.9174 9.75119Z" fill="#010002"/>
</mask>
<g mask="url(#mask0)">
<path d="M22.3094 35.6531C21.5394 35.1993 20.7144 34.828 19.8343 34.5393C18.968 34.2505 18.2392 34.1061 17.6479 34.1061C17.1804 34.1061 16.8091 34.1955 16.5341 34.3743C16.2728 34.5393 16.1422 34.7868 16.1422 35.1168C16.1422 35.4331 16.2591 35.7012 16.4928 35.9212C16.7266 36.1275 17.0154 36.2994 17.3591 36.4369C17.7029 36.5606 18.2117 36.7257 18.8855 36.9319C19.8893 37.2207 20.7144 37.5094 21.3606 37.7982C22.0207 38.087 22.5845 38.5339 23.052 39.1389C23.5195 39.7302 23.7533 40.5071 23.7533 41.4697C23.7533 42.4322 23.4989 43.2573 22.9901 43.9448C22.4813 44.6186 21.78 45.1274 20.8862 45.4711C20.0062 45.8149 19.023 45.9868 17.9367 45.9868C16.7403 45.9868 15.544 45.7805 14.3477 45.368C13.1651 44.9417 12.1407 44.3642 11.2744 43.6354L12.7389 40.6859C13.4677 41.3322 14.3271 41.8616 15.3171 42.2741C16.3209 42.6866 17.2079 42.8929 17.9779 42.8929C18.5417 42.8929 18.9817 42.7897 19.298 42.5835C19.628 42.3772 19.7931 42.0747 19.7931 41.6759C19.7931 41.3459 19.6693 41.0709 19.4217 40.8509C19.188 40.6309 18.8855 40.459 18.5142 40.3352C18.1567 40.1977 17.6479 40.0396 16.9879 39.8608C15.9978 39.5858 15.1796 39.3108 14.5333 39.0358C13.8871 38.747 13.3302 38.3207 12.8626 37.757C12.4089 37.1794 12.182 36.4163 12.182 35.4675C12.182 34.5737 12.4157 33.7899 12.8833 33.1161C13.3645 32.4423 14.0383 31.9266 14.9046 31.5691C15.7847 31.1978 16.8022 31.0122 17.9573 31.0122C19.0023 31.0122 20.0337 31.1635 21.0513 31.466C22.0688 31.7547 22.9626 32.1466 23.7327 32.6417L22.3094 35.6531ZM24.4233 31.301H36.8196V34.4155H32.4881V45.7599H28.7135V34.4155H24.4233V31.301ZM41.8783 39.799C41.8783 40.7065 42.1465 41.4353 42.6828 41.9853C43.219 42.5354 43.8997 42.8104 44.7247 42.8104C45.536 42.8104 46.1892 42.5422 46.6842 42.0059C47.193 41.4559 47.4474 40.7203 47.4474 39.799V31.301H51.222V39.799C51.222 41.0503 50.9538 42.1503 50.4176 43.0991C49.895 44.0342 49.1387 44.7561 48.1487 45.2649C47.1724 45.7737 46.0242 46.028 44.7041 46.028C43.384 46.028 42.2221 45.7737 41.2183 45.2649C40.2282 44.7561 39.4582 44.0342 38.9082 43.0991C38.3719 42.1503 38.1038 41.0503 38.1038 39.799V31.301H41.8783V39.799ZM60.0298 31.301C61.5424 31.301 62.8762 31.6035 64.0313 32.2085C65.2001 32.8136 66.1076 33.6661 66.7539 34.7662C67.4002 35.8525 67.7233 37.1038 67.7233 38.5201C67.7233 39.9365 67.3933 41.1947 66.7333 42.2947C66.087 43.3948 65.1657 44.2473 63.9694 44.8524C62.7868 45.4574 61.4255 45.7599 59.8854 45.7599H53.8007V31.301H60.0298ZM60.1329 42.7072C60.8617 42.7072 61.508 42.5354 62.0718 42.1916C62.6356 41.8478 63.0756 41.3597 63.3918 40.7271C63.7081 40.0946 63.8662 39.3727 63.8662 38.5614C63.8662 37.7363 63.6944 37.0075 63.3506 36.375C63.0206 35.7425 62.5599 35.2543 61.9686 34.9106C61.3774 34.553 60.7036 34.3743 59.9473 34.3743H57.5753V42.7072H60.1329ZM82.2605 31.301L77.0421 41.1396V45.7599H73.2675V41.2428L67.9459 31.301H71.7205L75.1445 37.5094L78.4859 31.301H82.2605ZM94.9924 31.301C96.0787 31.301 97.0205 31.4522 97.818 31.7547C98.6293 32.0435 99.255 32.4629 99.695 33.0129C100.135 33.563 100.355 34.2093 100.355 34.9518C100.355 35.7081 100.128 36.3681 99.6744 36.9319C99.2344 37.4957 98.6293 37.8807 97.8593 38.087C98.7806 38.2657 99.5025 38.6851 100.025 39.3452C100.561 40.0052 100.829 40.8028 100.829 41.7378C100.829 42.5491 100.603 43.2641 100.149 43.8829C99.695 44.488 99.0487 44.9555 98.2099 45.2855C97.3711 45.6018 96.3881 45.7599 95.2605 45.7599H88.1239V31.301H94.9924ZM94.7861 37.0557C95.3087 37.0557 95.7212 36.9319 96.0237 36.6844C96.3262 36.4231 96.4775 36.0656 96.4775 35.6118C96.4775 35.1718 96.3262 34.8349 96.0237 34.6012C95.7212 34.3536 95.3087 34.2368 94.7861 34.2505H91.8985V37.0557H94.7861ZM94.7861 42.831C95.4462 42.831 95.9687 42.6935 96.3537 42.4185C96.7387 42.1435 96.9313 41.7584 96.9313 41.2634C96.9313 40.8096 96.7387 40.4521 96.3537 40.1908C95.9687 39.9158 95.4462 39.7852 94.7861 39.799H91.8985V42.831H94.7861ZM106.416 39.799C106.416 40.7065 106.684 41.4353 107.22 41.9853C107.756 42.5354 108.437 42.8104 109.262 42.8104C110.073 42.8104 110.727 42.5422 111.222 42.0059C111.73 41.4559 111.985 40.7203 111.985 39.799V31.301H115.759V39.799C115.759 41.0503 115.491 42.1503 114.955 43.0991C114.432 44.0342 113.676 44.7561 112.686 45.2649C111.71 45.7737 110.562 46.028 109.241 46.028C107.921 46.028 106.759 45.7737 105.756 45.2649C104.766 44.7561 103.996 44.0342 103.446 43.0991C102.909 42.1503 102.641 41.0503 102.641 39.799V31.301H106.416V39.799ZM118.338 31.301H122.112V45.7599H118.338V31.301ZM124.925 31.301H128.7V42.5422H134.826V45.7599H124.925V31.301ZM142.776 31.301C144.289 31.301 145.623 31.6035 146.778 32.2085C147.946 32.8136 148.854 33.6661 149.5 34.7662C150.147 35.8525 150.47 37.1038 150.47 38.5201C150.47 39.9365 150.14 41.1947 149.48 42.2947C148.833 43.3948 147.912 44.2473 146.716 44.8524C145.533 45.4574 144.172 45.7599 142.632 45.7599H136.547V31.301H142.776ZM142.879 42.7072C143.608 42.7072 144.254 42.5354 144.818 42.1916C145.382 41.8478 145.822 41.3597 146.138 40.7271C146.454 40.0946 146.613 39.3727 146.613 38.5614C146.613 37.7363 146.441 37.0075 146.097 36.375C145.767 35.7425 145.306 35.2543 144.715 34.9106C144.124 34.553 143.45 34.3743 142.694 34.3743H140.322V42.7072H142.879Z" fill="white"/>
</g>
</svg>
