<svg width="21" height="17" viewBox="0 0 21 17" fill="none" xmlns="http://www.w3.org/2000/svg">
<path d="M1.51105 8.73128C1.83771 9.80689 2.16978 10.8374 2.71391 11.8201C2.87092 12.1016 3.4376 12.4409 2.70127 12.7278C3.15606 13.1862 2.91965 13.9289 3.33473 14.362C3.53776 14.575 3.94293 14.5019 4.23529 14.3043C4.49608 14.1283 4.53488 13.3369 5.09164 13.9767C5.40295 14.335 5.47334 14.6995 5.00772 15.0307C4.76678 15.2012 4.64406 15.4737 4.84078 15.7445C5.03028 16.0079 5.31272 15.9836 5.58342 15.8527C6.25569 15.5252 6.92073 15.7688 7.52621 15.9836C8.67853 16.3896 9.96982 15.9267 10.5843 14.7672C10.6322 14.7194 10.68 14.6733 10.7287 14.6291C11.4452 14.5488 12.1517 14.3232 12.8673 14.3485C13.0108 14.3539 13.1534 14.3683 13.2986 14.3981C13.5865 14.4559 13.8762 14.5678 14.1703 14.7546C14.7135 15.102 14.6116 14.3647 14.6197 14.1012C14.6323 13.6835 14.1857 13.5535 13.924 13.3063C13.4755 12.8867 13.3564 12.2703 13.5522 11.8201C13.739 11.3914 14.3201 11.201 14.8688 11.4284C15.3759 11.6387 15.6628 11.5322 15.624 10.9222C15.5979 10.5153 15.9435 10.6028 16.1709 10.4846C17.9296 9.57499 20.7278 9.51002 19.7009 6.2606C19.6657 6.14781 19.7334 5.98358 19.793 5.86356C20.2351 4.99188 20.0483 4.18156 19.589 3.38206C19.0151 2.38314 18.9971 1.39415 19.6973 0.435842C19.7659 0.280635 19.8056 0.129038 19.6504 0C19.5827 0.0812128 19.515 0.165133 19.4464 0.246345C19.1866 0.31673 18.8527 0.304999 18.6785 0.467425C17.8466 1.23443 17.1382 1.51326 16.1086 0.616315C15.5437 0.124526 14.8669 1.0296 14.1974 1.19653C13.6145 1.34542 14.0918 1.76502 14.2028 2.06822C14.3427 2.45984 14.275 3.03646 13.8328 2.75492C13.0144 2.22974 12.0949 2.14582 11.2539 1.793C10.3073 1.39596 9.50239 0.752572 8.31308 1.08464C7.50005 1.30933 6.55708 1.24616 5.70163 1.11713C3.96188 0.856344 2.65255 1.32828 1.78628 2.91644C1.54895 3.35409 1.24305 3.95326 0.847817 4.06786C-0.310819 4.40715 0.044713 5.11099 0.311813 5.77152C0.716974 6.76141 1.22591 7.79372 1.51105 8.73128Z" fill="#121111"/>
</svg>
