<svg width="1629" height="730" viewBox="0 0 1629 730" fill="none" xmlns="http://www.w3.org/2000/svg">
<rect width="1629" height="730" fill="#A6D1A1"/>
<rect x="118" width="1401" height="730" fill="white"/>
<path fill-rule="evenodd" clip-rule="evenodd" d="M173.996 0H118V153.302V730H495.248H1519V77.5645L1480.28 99.0898L1450.78 105.266L1451.84 130.142L1423.77 164.727L1422.71 125.818L1459.35 81.5225L1436.78 84.8506L1407.54 108.56L1371.86 106.433L1344.93 132.372L1364.31 146.37L1341.7 208.988L1322.31 212.316L1310.38 229.574L1315.73 252.254L1301.73 259.734L1297.37 239.25L1285.43 222.987L1269.24 240.177L1282.17 276.855L1263.88 310.411L1223.88 312.538L1215.3 326.606L1233.59 353.574L1214.2 369.804L1194.3 349.114L1193.58 368.603L1210.94 388.091L1218.52 422.608L1240.17 430.294L1269.41 442.165L1215.4 432.489L1192.69 410.908L1172.24 381.675L1200.17 395.742L1187.23 372.103L1184.59 339.815L1172.24 342.938L1157.14 310.617L1114.97 339.815V358.31L1099.84 373.338L1080.53 324.753L1058.98 298.814L1007.1 289.104L992.037 276.237L984.42 280.526L995.16 306.466L1012.38 297.819L1035.1 315.077L968.225 355.016L933.572 287.011L926.332 288.28L961.639 369.049L996.189 352.819L985.449 390.665L950.863 421.888L956.217 468.345L936.797 483.407L901.285 550.348L865.602 556.833L834.311 481.245L841.928 446.729L822.473 386.17L756.596 390.459L719.814 354.844L726.334 296.55L761.982 253.353L831.051 241.48L835.408 259.769L863.508 278.09L874.248 263.027L917.137 274.007L928.219 267.316L933.125 251.19L903.516 246.216L893.941 229.678L886.977 226.109L880.869 247.073L867.66 230.433L868.518 216.502L850.883 202.538L840.418 197.288L841.309 211.287L863.199 226.144L851.809 239.319L836.129 218.32L824.771 205.146L798.523 218.32L780.168 247.176L752.203 242.818L750.453 207.855L786.24 210.36L774.951 192.107L767.918 177.147L795.023 168.364L809.881 148.326L822.129 147.399L819.488 136.077L827.346 125.544L833.486 143.008L867.557 143.866L877.131 119.334L890.34 123.76L885.914 107.188L906.227 100.703L899.912 93.2227L881.521 98.3691L875.072 82.6895L874.281 82.5869L874.832 81.4883L872.154 74.9004L879.531 69.6514L885.982 53.2163L879.154 52.187L867.764 66.186L858.189 87.0811L868.793 98.4043L858.189 126.401L842.441 132.543L833.762 104.614L815.371 115.113L806.654 109.898L807.479 82.792L823.262 70.6465L836.402 38.291L869.65 20.0034L952.613 35.2373C1048.31 25.1841 1221.96 6.75928 1221.96 6.75928L1508.45 47.2119L1519 76.8096V0H173.996ZM173.996 0L129.529 26.4194L145.998 51.1577H127.848L122.975 69.2739L147.645 72.5332L122.975 92.3311L131.107 120.328L152.551 125.304L118 153.302L172.348 126.882L201.994 110.413L249.822 140.092L287.701 204.322V262.033L310.725 304.853L348.672 364.143L394.787 380.646L414.584 390.527L437.572 420.104L453.732 417.667L436.027 446.66L450.748 505.915L482.074 533.913L444.193 687.111L457.473 720.084L495.248 730L472.227 705.228L503.518 645.938L571.041 588.228L576.051 561.808L609.023 556.798L641.963 489.309L584.32 461.311L577.629 434.96L533.23 401.987L467.32 395.399L457.508 411.423L444.193 406.996L437.572 382.327L417.844 380.92L426.078 357.417L409.574 355.805L393.139 369.049L381.645 352.545L391.527 324.582L436.027 318.028L444.193 341.085L455.758 339.473V318.028L487.049 275.174L526.574 253.695L577.629 230.741L541.396 149.938L524.895 159.786L511.82 123.622L480.393 125.235L472.227 189.465L460.697 191.112L412.902 140.092L422.818 113.638L472.227 103.791V41.1387L348.672 54.417L284.477 16.5381L254.729 44.5356L173.996 0ZM1361.12 474.555L1364.69 446.626L1382.53 479.976L1411.8 509.175L1401.06 567.298L1381.57 579.271L1354.63 571.655L1348.19 552.132L1338.47 557.484L1317.96 545.51L1265.08 558.582L1252.01 551.068L1255.3 541.358L1246.66 492.911L1282.31 479.976L1315.9 448.685L1341.84 450.846L1337.48 465.908L1361.12 474.555ZM1261.76 424.907L1233.72 419.555L1229.33 402.262L1267.11 378.484L1274.72 385.037L1261.76 424.907ZM1349.18 438.94L1320.02 408.678L1342.66 406.585L1386.96 428.098L1396.67 448.616L1372.92 433.588L1365.89 440.038L1349.18 438.94ZM1365.38 163.663H1372.96L1376.11 176.667L1369.66 199.415L1381.5 209.057L1366.47 223.021L1364.31 251.122L1318.99 278.09L1320.05 261.896L1344.89 243.573L1364.31 202.503L1365.38 163.663ZM1492.88 585.723L1489.65 555.563L1505.71 568.498L1515.42 569.562L1500.32 590.012L1481 619.244L1459.42 617.083L1492.88 585.723ZM767.814 132.681V101.218L760.85 122.25H745.066L745.959 105.712L759.1 89.8604L758.242 77.7139L772.207 68.0044L795.848 113.501L789.672 123.107L767.814 132.681ZM964.451 506.636L965.309 471.604L988.881 453.214L992.449 470.78L978.52 512.743L964.451 506.636ZM913.877 191.112L959.305 214.718L951.584 227.79L932.336 222.541L906.02 226.864L899.912 215.576L913.877 191.112ZM1003.02 217.291L1007.27 244.362L982.91 242.647L987.199 226.075L977.66 201.577L1004.8 186.721V199.793L994.199 204.185L1003.02 217.291ZM591.492 25.3213L615.818 32.0122L636.748 67.8672L645.668 85.9492L632.904 109.933L632.184 122.353L619.797 129.97L618.357 162.702L600.068 158.174L561.4 57.4707L591.492 25.3213Z" fill="#A6D1A1"/>
<path d="M132.24 333.4C123.28 328.12 113.68 323.8 103.44 320.44C93.36 317.08 84.88 315.4 78 315.4C72.56 315.4 68.24 316.44 65.04 318.52C62 320.44 60.48 323.32 60.48 327.16C60.48 330.84 61.84 333.96 64.56 336.52C67.28 338.92 70.64 340.92 74.64 342.52C78.64 343.96 84.56 345.88 92.4 348.28C104.08 351.64 113.68 355 121.2 358.36C128.88 361.72 135.44 366.92 140.88 373.96C146.32 380.84 149.04 389.88 149.04 401.08C149.04 412.28 146.08 421.88 140.16 429.88C134.24 437.72 126.08 443.64 115.68 447.64C105.44 451.64 94 453.64 81.36 453.64C67.44 453.64 53.52 451.24 39.6 446.44C25.84 441.48 13.92 434.76 3.84 426.28L20.88 391.96C29.36 399.48 39.36 405.64 50.88 410.44C62.56 415.24 72.88 417.64 81.84 417.64C88.4 417.64 93.52 416.44 97.2 414.04C101.04 411.64 102.96 408.12 102.96 403.48C102.96 399.64 101.52 396.44 98.64 393.88C95.92 391.32 92.4 389.32 88.08 387.88C83.92 386.28 78 384.44 70.32 382.36C58.8 379.16 49.28 375.96 41.76 372.76C34.24 369.4 27.76 364.44 22.32 357.88C17.04 351.16 14.4 342.28 14.4 331.24C14.4 320.84 17.12 311.72 22.56 303.88C28.16 296.04 36 290.04 46.08 285.88C56.32 281.56 68.16 279.4 81.6 279.4C93.76 279.4 105.76 281.16 117.6 284.68C129.44 288.04 139.84 292.6 148.8 298.36L132.24 333.4ZM156.836 282.76H301.076V319H250.676V451H206.756V319H156.836V282.76ZM359.938 381.64C359.938 392.2 363.058 400.68 369.298 407.08C375.538 413.48 383.458 416.68 393.058 416.68C402.498 416.68 410.098 413.56 415.858 407.32C421.778 400.92 424.738 392.36 424.738 381.64V282.76H468.658V381.64C468.658 396.2 465.538 409 459.298 420.04C453.218 430.92 444.418 439.32 432.898 445.24C421.538 451.16 408.178 454.12 392.818 454.12C377.458 454.12 363.938 451.16 352.258 445.24C340.738 439.32 331.778 430.92 325.378 420.04C319.138 409 316.018 396.2 316.018 381.64V282.76H359.938V381.64ZM571.144 282.76C588.744 282.76 604.264 286.28 617.704 293.32C631.304 300.36 641.864 310.28 649.384 323.08C656.904 335.72 660.664 350.28 660.664 366.76C660.664 383.24 656.824 397.88 649.144 410.68C641.624 423.48 630.904 433.4 616.984 440.44C603.224 447.48 587.384 451 569.464 451H498.664V282.76H571.144ZM572.344 415.48C580.824 415.48 588.344 413.48 594.904 409.48C601.464 405.48 606.584 399.8 610.264 392.44C613.944 385.08 615.784 376.68 615.784 367.24C615.784 357.64 613.784 349.16 609.784 341.8C605.944 334.44 600.584 328.76 593.704 324.76C586.824 320.6 578.984 318.52 570.184 318.52H542.584V415.48H572.344ZM829.813 282.76L769.093 397.24V451H725.173V398.44L663.253 282.76H707.173L747.013 355L785.893 282.76H829.813ZM977.959 282.76C990.599 282.76 1001.56 284.52 1010.84 288.04C1020.28 291.4 1027.56 296.28 1032.68 302.68C1037.8 309.08 1040.36 316.6 1040.36 325.24C1040.36 334.04 1037.72 341.72 1032.44 348.28C1027.32 354.84 1020.28 359.32 1011.32 361.72C1022.04 363.8 1030.44 368.68 1036.52 376.36C1042.76 384.04 1045.88 393.32 1045.88 404.2C1045.88 413.64 1043.24 421.96 1037.96 429.16C1032.68 436.2 1025.16 441.64 1015.4 445.48C1005.64 449.16 994.199 451 981.079 451H898.039V282.76H977.959ZM975.559 349.72C981.639 349.72 986.439 348.28 989.959 345.4C993.479 342.36 995.239 338.2 995.239 332.92C995.239 327.8 993.479 323.88 989.959 321.16C986.439 318.28 981.639 316.92 975.559 317.08H941.959V349.72H975.559ZM975.559 416.92C983.239 416.92 989.319 415.32 993.799 412.12C998.279 408.92 1000.52 404.44 1000.52 398.68C1000.52 393.4 998.279 389.24 993.799 386.2C989.319 383 983.239 381.48 975.559 381.64H941.959V416.92H975.559ZM1110.88 381.64C1110.88 392.2 1114 400.68 1120.24 407.08C1126.48 413.48 1134.4 416.68 1144 416.68C1153.44 416.68 1161.04 413.56 1166.8 407.32C1172.72 400.92 1175.68 392.36 1175.68 381.64V282.76H1219.6V381.64C1219.6 396.2 1216.48 409 1210.24 420.04C1204.16 430.92 1195.36 439.32 1183.84 445.24C1172.48 451.16 1159.12 454.12 1143.76 454.12C1128.4 454.12 1114.88 451.16 1103.2 445.24C1091.68 439.32 1082.72 430.92 1076.32 420.04C1070.08 409 1066.96 396.2 1066.96 381.64V282.76H1110.88V381.64ZM1249.6 282.76H1293.52V451H1249.6V282.76ZM1326.24 282.76H1370.16V413.56H1441.44V451H1326.24V282.76ZM1533.96 282.76C1551.56 282.76 1567.08 286.28 1580.52 293.32C1594.12 300.36 1604.68 310.28 1612.2 323.08C1619.72 335.72 1623.48 350.28 1623.48 366.76C1623.48 383.24 1619.64 397.88 1611.96 410.68C1604.44 423.48 1593.72 433.4 1579.8 440.44C1566.04 447.48 1550.2 451 1532.28 451H1461.48V282.76H1533.96ZM1535.16 415.48C1543.64 415.48 1551.16 413.48 1557.72 409.48C1564.28 405.48 1569.4 399.8 1573.08 392.44C1576.76 385.08 1578.6 376.68 1578.6 367.24C1578.6 357.64 1576.6 349.16 1572.6 341.8C1568.76 334.44 1563.4 328.76 1556.52 324.76C1549.64 320.6 1541.8 318.52 1533 318.52H1505.4V415.48H1535.16Z" fill="white"/>
<mask id="mask0" mask-type="alpha" maskUnits="userSpaceOnUse" x="118" y="0" width="1401" height="730">
<path d="M584.245 461.311L641.878 489.309L608.945 556.798L575.978 561.808L570.969 588.227L503.456 645.938L472.169 705.227L495.188 730L457.418 720.084L444.142 687.111L482.015 533.913L450.694 505.915L435.977 446.66L453.679 417.667L437.521 420.103L414.536 390.527L394.742 380.646L348.635 364.142L310.694 304.853L287.675 262.033V204.322L249.802 140.092L201.98 110.413L172.34 126.882L118 153.301L152.546 125.304L131.105 120.329L122.974 92.3308L147.64 72.5334L122.974 69.2738L127.846 51.1576H145.993L129.527 26.4195L173.986 0L254.707 44.5356L284.45 16.5379L348.635 54.4172L472.169 41.1389V103.791L422.77 113.638L412.855 140.092L460.643 191.112L472.169 189.465L480.334 125.235L511.758 123.622L524.828 159.786L541.329 149.939L577.556 230.741L526.509 253.695L486.989 275.174L455.703 318.028V339.473L444.142 341.085L435.977 318.028L391.483 324.582L381.603 352.545L393.095 369.049L409.528 355.805L426.029 357.417L417.795 380.92L437.521 382.327L444.142 406.997L457.452 411.423L467.264 395.4L533.164 401.987L577.556 434.96L584.245 461.311ZM1364.49 446.626L1360.92 474.555L1337.28 465.909L1341.64 450.846L1315.71 448.684L1282.12 479.976L1246.48 492.911L1255.12 541.358L1251.83 551.068L1264.9 558.582L1317.76 545.51L1338.28 557.484L1347.99 552.132L1354.44 571.655L1381.37 579.272L1400.85 567.297L1411.59 509.175L1382.33 479.976L1364.49 446.626ZM1233.54 419.554L1261.57 424.907L1274.54 385.038L1266.92 378.484L1229.15 402.262L1233.54 419.554ZM1319.82 408.678L1348.98 438.94L1365.69 440.038L1372.72 433.588L1396.46 448.616L1386.75 428.098L1342.46 406.585L1319.82 408.678ZM1372.76 163.663H1365.17L1364.11 202.503L1344.69 243.574L1319.86 261.896L1318.79 278.09L1364.11 251.122L1366.27 223.021L1381.3 209.057L1369.46 199.415L1375.91 176.667L1372.76 163.663ZM1489.43 555.563L1492.65 585.722L1459.21 617.083L1480.78 619.244L1500.1 590.011L1515.19 569.562L1505.48 568.498L1489.43 555.563ZM767.711 101.217V132.68L789.563 123.108L795.738 113.501L772.102 68.0043L758.14 77.7143L758.997 89.8604L745.858 105.712L744.966 122.25H760.747L767.711 101.217ZM965.173 471.604L964.315 506.636L978.38 512.743L992.309 470.781L988.741 453.213L965.173 471.604ZM1450.56 105.266L1451.62 130.141L1423.56 164.727L1422.5 125.818L1459.14 81.5229L1436.56 84.851L1407.34 108.56L1371.66 106.433L1344.73 132.372L1364.11 146.371L1341.5 208.988L1322.12 212.316L1310.18 229.575L1315.53 252.254L1301.54 259.734L1297.18 239.25L1285.24 222.987L1269.05 240.177L1281.98 276.855L1263.7 310.411L1223.7 312.539L1215.12 326.606L1233.41 353.574L1214.02 369.803L1194.13 349.114L1193.41 368.603L1210.77 388.091L1218.35 422.608L1239.99 430.294L1269.22 442.165L1215.23 432.49L1192.52 410.908L1172.07 381.675L1199.99 395.743L1187.06 372.102L1184.42 339.816L1172.07 342.938L1156.97 310.617L1114.81 339.816V358.309L1099.68 373.338L1080.37 324.753L1058.83 298.814L1006.96 289.104L991.897 276.238L984.281 280.526L995.019 306.466L1012.24 297.819L1034.95 315.078L968.089 355.016L933.44 287.011L926.202 288.281L961.502 369.049L996.048 352.82L985.31 390.665L950.73 421.888L956.082 468.345L936.665 483.407L901.159 550.348L865.481 556.833L834.195 481.246L841.811 446.729L822.359 386.17L756.493 390.459L719.717 354.844L726.235 296.55L761.879 253.352L830.936 241.481L835.293 259.768L863.389 278.09L874.126 263.028L917.008 274.007L928.089 267.317L932.994 251.191L903.389 246.215L893.818 229.678L886.854 226.109L880.747 247.073L867.54 230.432L868.397 216.502L850.764 202.538L840.301 197.288L841.193 211.287L863.08 226.144L851.69 239.319L836.013 218.321L824.658 205.145L798.414 218.321L780.061 247.176L752.102 242.819L750.352 207.856L786.133 210.361L774.846 192.107L767.814 177.147L794.915 168.364L809.769 148.326L822.016 147.4L819.375 136.077L827.231 125.544L833.371 143.008L867.437 143.866L877.008 119.334L890.216 123.76L885.79 107.187L906.099 100.703L899.787 93.2229L881.399 98.3695L874.95 82.6894L874.161 82.5865L874.709 81.4885L872.034 74.9008L879.409 69.6513L885.859 53.2163L879.032 52.187L867.643 66.1859L858.071 87.0812L868.672 98.4038L858.071 126.402L842.325 132.543L833.646 104.614L815.258 115.113L806.544 109.898L807.368 82.7924L823.148 70.6463L836.287 38.291L869.529 20.0033L952.48 35.2374C1048.16 25.1843 1221.78 6.75928 1221.78 6.75928L1508.23 47.2119L1519 77.4398L1480.06 99.0901L1450.56 105.266ZM959.169 214.718L913.749 191.112L899.787 215.576L905.893 226.864L932.205 222.541L951.451 227.79L959.169 214.718ZM1007.13 244.363L1002.87 217.291L994.058 204.185L1004.66 199.793V186.72L977.523 201.577L987.06 226.075L982.772 242.647L1007.13 244.363ZM615.738 32.0121L591.415 25.3215L561.329 57.4709L599.991 158.174L618.276 162.703L619.717 129.97L632.101 122.353L632.822 109.932L645.583 85.949L636.664 67.8671L615.738 32.0121Z" fill="#010002"/>
</mask>
<g mask="url(#mask0)">
<path d="M131.594 333.4C122.634 328.12 113.034 323.8 102.794 320.44C92.7135 317.08 84.2335 315.4 77.3535 315.4C71.9135 315.4 67.5935 316.44 64.3935 318.52C61.3535 320.44 59.8335 323.32 59.8335 327.16C59.8335 330.84 61.1935 333.96 63.9135 336.52C66.6335 338.92 69.9935 340.92 73.9935 342.52C77.9935 343.96 83.9135 345.88 91.7535 348.28C103.434 351.64 113.034 355 120.554 358.36C128.234 361.72 134.794 366.92 140.234 373.96C145.674 380.84 148.394 389.88 148.394 401.08C148.394 412.28 145.434 421.88 139.514 429.88C133.594 437.72 125.434 443.64 115.034 447.64C104.794 451.64 93.3535 453.64 80.7135 453.64C66.7935 453.64 52.8735 451.24 38.9535 446.44C25.1935 441.48 13.2735 434.76 3.19352 426.28L20.2335 391.96C28.7135 399.48 38.7135 405.64 50.2335 410.44C61.9135 415.24 72.2335 417.64 81.1935 417.64C87.7535 417.64 92.8735 416.44 96.5535 414.04C100.394 411.64 102.314 408.12 102.314 403.48C102.314 399.64 100.874 396.44 97.9935 393.88C95.2735 391.32 91.7535 389.32 87.4335 387.88C83.2735 386.28 77.3535 384.44 69.6735 382.36C58.1535 379.16 48.6335 375.96 41.1135 372.76C33.5935 369.4 27.1135 364.44 21.6735 357.88C16.3935 351.16 13.7535 342.28 13.7535 331.24C13.7535 320.84 16.4735 311.72 21.9135 303.88C27.5135 296.04 35.3535 290.04 45.4335 285.88C55.6735 281.56 67.5135 279.4 80.9535 279.4C93.1135 279.4 105.114 281.16 116.954 284.68C128.794 288.04 139.194 292.6 148.154 298.36L131.594 333.4ZM156.19 282.76H300.43V319H250.03V451H206.11V319H156.19V282.76ZM359.292 381.64C359.292 392.2 362.412 400.68 368.652 407.08C374.892 413.48 382.812 416.68 392.412 416.68C401.852 416.68 409.452 413.56 415.212 407.32C421.132 400.92 424.092 392.36 424.092 381.64V282.76H468.012V381.64C468.012 396.2 464.892 409 458.652 420.04C452.572 430.92 443.772 439.32 432.252 445.24C420.892 451.16 407.532 454.12 392.172 454.12C376.812 454.12 363.292 451.16 351.612 445.24C340.092 439.32 331.132 430.92 324.732 420.04C318.492 409 315.372 396.2 315.372 381.64V282.76H359.292V381.64ZM570.497 282.76C588.097 282.76 603.617 286.28 617.057 293.32C630.657 300.36 641.217 310.28 648.737 323.08C656.257 335.72 660.017 350.28 660.017 366.76C660.017 383.24 656.177 397.88 648.497 410.68C640.977 423.48 630.257 433.4 616.337 440.44C602.577 447.48 586.737 451 568.817 451H498.017V282.76H570.497ZM571.697 415.48C580.177 415.48 587.697 413.48 594.257 409.48C600.817 405.48 605.937 399.8 609.617 392.44C613.297 385.08 615.137 376.68 615.137 367.24C615.137 357.64 613.137 349.16 609.137 341.8C605.297 334.44 599.937 328.76 593.057 324.76C586.177 320.6 578.337 318.52 569.537 318.52H541.937V415.48H571.697ZM829.167 282.76L768.447 397.24V451H724.527V398.44L662.607 282.76H706.527L746.367 355L785.247 282.76H829.167ZM977.312 282.76C989.952 282.76 1000.91 284.52 1010.19 288.04C1019.63 291.4 1026.91 296.28 1032.03 302.68C1037.15 309.08 1039.71 316.6 1039.71 325.24C1039.71 334.04 1037.07 341.72 1031.79 348.28C1026.67 354.84 1019.63 359.32 1010.67 361.72C1021.39 363.8 1029.79 368.68 1035.87 376.36C1042.11 384.04 1045.23 393.32 1045.23 404.2C1045.23 413.64 1042.59 421.96 1037.31 429.16C1032.03 436.2 1024.51 441.64 1014.75 445.48C1004.99 449.16 993.552 451 980.432 451H897.392V282.76H977.312ZM974.912 349.72C980.992 349.72 985.792 348.28 989.312 345.4C992.832 342.36 994.592 338.2 994.592 332.92C994.592 327.8 992.832 323.88 989.312 321.16C985.792 318.28 980.992 316.92 974.912 317.08H941.312V349.72H974.912ZM974.912 416.92C982.592 416.92 988.672 415.32 993.152 412.12C997.632 408.92 999.872 404.44 999.872 398.68C999.872 393.4 997.632 389.24 993.152 386.2C988.672 383 982.592 381.48 974.912 381.64H941.312V416.92H974.912ZM1110.23 381.64C1110.23 392.2 1113.35 400.68 1119.59 407.08C1125.83 413.48 1133.75 416.68 1143.35 416.68C1152.79 416.68 1160.39 413.56 1166.15 407.32C1172.07 400.92 1175.03 392.36 1175.03 381.64V282.76H1218.95V381.64C1218.95 396.2 1215.83 409 1209.59 420.04C1203.51 430.92 1194.71 439.32 1183.19 445.24C1171.83 451.16 1158.47 454.12 1143.11 454.12C1127.75 454.12 1114.23 451.16 1102.55 445.24C1091.03 439.32 1082.07 430.92 1075.67 420.04C1069.43 409 1066.31 396.2 1066.31 381.64V282.76H1110.23V381.64ZM1248.95 282.76H1292.87V451H1248.95V282.76ZM1325.6 282.76H1369.52V413.56H1440.8V451H1325.6V282.76ZM1533.31 282.76C1550.91 282.76 1566.43 286.28 1579.87 293.32C1593.47 300.36 1604.03 310.28 1611.55 323.08C1619.07 335.72 1622.83 350.28 1622.83 366.76C1622.83 383.24 1618.99 397.88 1611.31 410.68C1603.79 423.48 1593.07 433.4 1579.15 440.44C1565.39 447.48 1549.55 451 1531.63 451H1460.83V282.76H1533.31ZM1534.51 415.48C1542.99 415.48 1550.51 413.48 1557.07 409.48C1563.63 405.48 1568.75 399.8 1572.43 392.44C1576.11 385.08 1577.95 376.68 1577.95 367.24C1577.95 357.64 1575.95 349.16 1571.95 341.8C1568.11 334.44 1562.75 328.76 1555.87 324.76C1548.99 320.6 1541.15 318.52 1532.35 318.52H1504.75V415.48H1534.51Z" fill="#A6D1A1"/>
</g>
</svg>
