<svg width="20" height="20" viewBox="0 0 20 20" fill="none" xmlns="http://www.w3.org/2000/svg">
<path d="M16.5594 3.55036C14.5368 1.71516 12.6035 1.71838 10.6368 3.39886C8.61232 5.12662 4.98241 3.76418 4.56709 0.974848C4.37898 -0.294107 4.07261 -0.138308 3.45335 0.397855C2.58452 1.15106 1.77901 1.45944 1.02006 0.236684C0.811471 -0.0964036 0.580528 -0.0383819 0.295574 0.200151C0.0208637 0.434387 -0.048978 0.658952 0.0311071 1.02857C0.379384 2.65103 0.577734 4.35514 1.74828 5.55318C2.03696 5.84544 2.18223 6.24085 1.98574 6.51269C0.712762 8.28557 2.00902 9.10217 2.96166 9.98002C3.50084 10.4743 3.86681 10.8826 3.94317 11.7884C3.98973 12.3342 4.15083 13.6408 4.90978 13.4592C6.53197 13.0681 6.78805 14.395 7.47157 15.4749C8.38789 16.9265 9.78938 18.1299 11.3017 18.0386C12.5393 17.9677 13.3932 17.0296 14.3431 19.0464C14.8515 20.1327 16.9039 19.6589 18.2486 19.978C19.1184 20.1832 18.6192 18.8928 19.1109 18.5758C19.1929 18.521 19.2702 18.4523 19.3465 18.3889C19.7209 18.0805 20.057 16.8352 19.9919 16.3355C19.9323 15.8896 19.706 15.7424 19.4238 15.505C18.5578 14.7872 17.5325 14.0587 18.7617 12.6458C19.0029 12.3675 19.1146 11.769 18.73 11.6659C17.3882 11.3156 18.0009 10.0273 17.7662 9.17202C17.4263 7.93207 18.3417 6.91347 18.3818 5.37375C18.6276 4.04892 17.2271 4.15637 16.5594 3.55036Z" fill="#121111"/>
</svg>
