<svg width="21" height="20" viewBox="0 0 21 20" fill="none" xmlns="http://www.w3.org/2000/svg">
<path d="M17.5147 8.11342C17.417 7.32433 17.5991 6.91457 17.6977 6.41348C17.821 5.80469 17.8969 5.14204 17.9955 4.463C17.0206 3.38824 16.1974 3.33204 15.3392 4.74398C14.9503 5.38321 14.3235 5.66185 13.8626 5.41834C12.4221 4.65734 11.1333 2.19406 9.52391 3.27585C9.28208 3.43741 9.17302 2.39309 9.00612 1.88498C8.47409 0.25997 7.64429 0.13587 6.87898 0.00240305C6.59732 -0.0491104 6.23031 0.735298 6.26065 1.61337C6.41144 6.37133 4.79641 4.25226 4.45216 3.67156C3.20034 1.55249 2.20552 2.62022 1.12725 4.13284C-0.32656 6.17933 -0.328457 6.14421 1.18226 8.52553C1.36908 8.8229 1.66307 9.36848 1.64221 9.70566C1.389 14.0375 2.80203 13.7541 3.81013 14.6673C4.14584 14.9694 4.59156 15.4611 4.70537 16.1472C5.06289 18.3178 5.75898 18.4138 6.51671 18.4629C7.52954 18.5332 8.4978 19.0109 9.49736 19.6548C11.1627 20.7225 12.7919 19.1186 14.3415 17.5006C14.6715 17.1517 15.1116 16.7419 14.9295 15.227C14.7778 13.9415 15.178 14.0866 15.5194 14.3138C15.9025 14.5737 16.2069 14.0609 16.555 13.7776C17.729 12.8339 18.5635 9.81571 20.043 10.9911C19.584 6.80217 18.353 8.53958 17.5147 8.11342Z" fill="black"/>
</svg>
