<svg width="10" height="20" viewBox="0 0 10 20" fill="none" xmlns="http://www.w3.org/2000/svg">
<path d="M0.020114 1.43712C0.384606 2.09466 0.923655 2.63823 1.22845 3.36269C1.37226 3.70457 1.88508 3.73261 2.33549 3.58247C3.15221 3.31023 3.00026 4.26985 3.42716 4.5448C3.63518 4.67866 3.37199 4.93371 3.1296 4.98707C1.78016 5.28916 2.36534 5.69887 3.0482 6.15109C4.58575 7.17221 5.50196 8.78032 6.65422 10.1442C7.50711 11.1563 6.68588 12.6179 7.02595 13.8552C7.21588 14.5434 6.93098 15.0463 6.17034 15.257C4.94663 15.5935 4.4519 16.9737 3.24808 17.3653C3.17211 17.3897 3.09342 17.6529 3.09885 17.6565C4.13805 18.2272 3.06809 19.2701 3.66322 19.9991C3.8016 19.9366 3.97344 19.8869 4.11002 19.7892C5.50377 18.7889 6.64699 17.4494 8.28313 16.7747C8.74439 16.5884 9.20295 16.2881 9.32595 15.7382C9.81797 13.5621 9.61357 11.4692 7.98828 9.84394C7.0567 8.91417 6.14864 7.99254 5.31655 6.96781C4.56947 6.04618 4.72775 5.40221 5.43774 4.59364C6.09437 3.84657 6.78717 3.16552 7.75222 2.53241C6.34309 2.11003 5.93338 1.90653 6.02834 1.40728C6.17306 0.661111 5.88273 0.407866 5.28579 0.552577C4.66444 0.704524 4.40758 -0.381715 3.84321 0.145577C2.87816 1.0455 1.75574 0.924304 0.609812 0.834764C0.17387 0.803109 -0.0748527 1.26618 0.020114 1.43712Z" fill="#121111"/>
</svg>
